<?xml version="1.0" encoding="UTF-8" standalone="no"?>
<!-- Created with Inkscape (http://www.inkscape.org/) -->

<svg
   version="1.1"
   id="svg1"
   width="2962.6667"
   height="2962.6667"
   viewBox="0 0 2962.6667 2962.6667"
   sodipodi:docname="logo.svg"
   inkscape:version="1.4.3 (0d15f75, 2025-12-25)"
   xmlns:inkscape="http://www.inkscape.org/namespaces/inkscape"
   xmlns:sodipodi="http://sodipodi.sourceforge.net/DTD/sodipodi-0.dtd"
   xmlns="http://www.w3.org/2000/svg"
   xmlns:svg="http://www.w3.org/2000/svg">
  <defs
     id="defs1">
    <inkscape:path-effect
       effect="powerstroke"
       message=""
       id="path-effect1"
       is_visible="true"
       lpeversion="1.3"
       scale_width="1"
       interpolator_type="CentripetalCatmullRom"
       interpolator_beta="0.2"
       start_linecap_type="zerowidth"
       end_linecap_type="zerowidth"
       offset_points="0.68811911,16.586557 | 7.0095894,19.016595 | 10.188684,33.39935"
       linejoin_type="round"
       miter_limit="4"
       not_jump="false"
       sort_points="true" />
  </defs>
  <sodipodi:namedview
     id="namedview1"
     pagecolor="#ffffff"
     bordercolor="#000000"
     borderopacity="0.25"
     inkscape:showpageshadow="2"
     inkscape:pageopacity="0.0"
     inkscape:pagecheckerboard="0"
     inkscape:deskcolor="#d1d1d1"
     inkscape:zoom="0.55706137"
     inkscape:cx="2043.7605"
     inkscape:cy="1498.0396"
     inkscape:window-width="3440"
     inkscape:window-height="1369"
     inkscape:window-x="1912"
     inkscape:window-y="-8"
     inkscape:window-maximized="1"
     inkscape:current-layer="g1">
    <inkscape:page
       x="0"
       y="0"
       inkscape:label="1"
       id="page1"
       width="2962.6667"
       height="2962.6667"
       margin="0"
       bleed="0" />
  </sodipodi:namedview>
  <g
     id="g1"
     inkscape:groupmode="layer"
     inkscape:label="1">
    <!-- Favicon backdrop: adjust fill for the terracotta color and rx/ry for corner roundness. -->
    <rect
       id="favicon-backdrop"
       x="0"
       y="0"
       width="2962.6667"
       height="2962.6667"
       rx="520"
       ry="520"
       style="display:inline;fill:#c87055;fill-opacity:1;stroke:none" />
    <g
       id="group-R5"
       style="display:inline">
      <path
         id="path5"
         d="m 14108.7,5088.2 c -193,-68 -478,-114 -869,-140 v -133 c 320,18 708,31 1157,38 -60,90 -119,185 -175,286 -35,-19 -73,-37 -113,-51"
         style="display:inline;fill:#2d2d2d;fill-opacity:1;fill-rule:nonzero;stroke:none"
         transform="matrix(0.13333333,0,0,-0.13333333,0,2962.6667)" />
      <path
         id="path6"
         d="m 10141.7,10857.2 h 1337 c 47,44 95,88 144,134 h -1484 c 1,-46 2,-91 3,-134"
         style="display:inline;fill:#2d2d2d;fill-opacity:1;fill-rule:nonzero;stroke:none"
         transform="matrix(0.13333333,0,0,-0.13333333,0,2962.6667)" />
      <path
         id="path7"
         d="m 12075.7,10857.2 h 1150 c 1,44 4,89 5,134 h -1009 c -50,-46 -98,-91 -146,-134"
         style="display:inline;fill:#2d2d2d;fill-opacity:1;fill-rule:nonzero;stroke:none"
         transform="matrix(0.13333333,0,0,-0.13333333,0,2962.6667)" />
      <path
         id="path8"
         d="m 9568.74,4838.2 c 194,-6 374,-14 535.96,-23 v 133 c -169.96,11 -317.96,26 -448.97,45 -27.99,-54 -56.99,-105 -86.99,-155"
         style="display:inline;fill:#2d2d2d;fill-opacity:1;fill-rule:nonzero;stroke:none"
         transform="matrix(0.13333333,0,0,-0.13333333,0,2962.6667)" />
      <path
         id="path9"
         d="m 13449.7,16812.2 c 45,-4 89,-9 130,-14 8,-1 16,-2 24,-3 103,-13 196,-28 279,-45 v 0 c 86,-18 161,-38 226,-61 91,-32 170,-77 239,-134 8,17 15,34 22,50 51,111 104,216 157,316 -195,3 -378,6 -550,11 h -1 c -53,1 -103,3 -154,5 -25,1 -50,2 -75,2 -42,1 -82,3 -122,4 -38,1 -75,3 -112,5 -28,1 -56,2 -83,4 -66,3 -129,6 -190,10 v -133 c 60,-4 116,-8 171,-13 13,-2 26,-3 39,-4"
         style="display:inline;fill:#2d2d2d;fill-opacity:1;fill-rule:nonzero;stroke:none"
         transform="matrix(0.13333333,0,0,-0.13333333,0,2962.6667)" />
      <path
         id="path10"
         d="m 16140.7,10274.2 v 4950 c 0,97 2,187 5,273 3,65 6,127 10,185 18,228 50,407 98,540 10,27 21,53 32,78 83,175 217,300 399,374 12,5 24,11 36,15 25,9 51,17 79,25 49,14 104,27 164,39 34,7 69,13 106,19 146,24 319,43 520,56 v 133 c -143,-9 -305,-16 -484,-22 -33,-1 -66,-2 -99,-3 -47,-1 -95,-3 -145,-4 -33,-1 -66,-2 -100,-2 -386,-9 -839,-13 -1356,-13 -2,0 -238,0 -347,1 -27,-60 -54,-120 -80,-184 -116,-282 -222,-590 -317,-922 11,-94 18,-199 22,-313 0,-5 1,-25 1,-29 1,-35 2,-71 3,-108 1,-44 1,-90 1,-137 v -1307 -143 -293 -141 -1742 0 -609 h -652 c 0,-44 -2,-89 -2,-134 h 654 v -579 -25 -3699 c 0,-1 0,-3 0,-4 0,-188 -7,-352 -19,-497 165,-480 360,-879 586,-1192 50,0 99,0 150,0 59,0 176,0 176,0 538,-1 1004,-7 1392,-19 2,0 4,0 6,0 75,-2 147,-5 216,-7 4,0 8,0 11,0 68,-3 133,-5 195,-8 3,0 6,0 8,0 63,-3 123,-6 180,-10 v 133 c -391,25 -676,71 -868,140 -114,41 -211,100 -289,178 -78,78 -138,175 -180,289 -77,212 -114,538 -114,998 v 3690 30 h 2"
         style="display:inline;fill:#2d2d2d;fill-opacity:1;fill-rule:nonzero;stroke:none"
         transform="matrix(0.13333333,0,0,-0.13333333,0,2962.6667)" />
      <path
         id="path11"
         d="m 5753.74,16962.2 v -133 c 392,-26 677,-72 868,-140 85,-30 161,-71 227,-123 22,-17 43,-36 62,-55 78,-78 138,-175 180,-289 77,-212 114,-538 114,-998 v -1266 -100 -107 -101 -7097 c 0,-460 -37,-786 -114,-998 -83,-229 -240,-386 -468,-467 -193,-68 -478,-114 -869,-140 v -133 c 315,19 722,32 1215,39 70,1 143,2 217,3 33,0 65,1 99,1 42,0 84,1 127,1 32,0 65,0 98,1 138,1 280,1 428,1 91,0 747,-4 966,-7 45,104 85,220 118,349 -115,87 -201,204 -254,353 -13,36 -25,77 -36,120 h -1 1 v 0 c -25,99 -43,216 -56,351 -1,11 -2,22 -3,34 -2,24 -4,50 -6,75 -1,19 -3,39 -4,58 -1,22 -2,45 -3,68 -1,27 -2,54 -3,82 -1,19 -1,38 -2,57 -1,47 -1,95 -2,146 0,2 0,4 0,6 v 953 152 0 213 0 151 2337 497 h 703 c 1,45 3,89 5,134 h -706 v 2813 98 98 98 1127 c 0,460 37,786 114,998 83,229 241,386 468,467 192,68 476,114 867.96,140 v 134 c -548.96,-30 -1276.96,-46 -2166.96,-46 -949,-1 -1683,14 -2184,45"
         style="display:inline;fill:#2d2d2d;fill-opacity:1;fill-rule:nonzero;stroke:none"
         transform="matrix(0.13333333,0,0,-0.13333333,0,2962.6667)" />
    </g>
    <g
       inkscape:groupmode="layer"
       id="layer1"
       inkscape:label="Layer 1" />
    <path
       style="fill:#2e2e2e;fill-opacity:1;fill-rule:nonzero;stroke:none;stroke-width:30"
       d="m 2206.669,2429.2656 c -0.7817,-0.1878 -1.7202,-0.4635 -2.8537,-0.835 -0.9894,-0.3243 -2.1442,-0.7271 -3.4803,-1.2128 -2.2658,-0.8236 -5.2316,-1.9513 -8.8228,-3.365 -5.5545,-2.1867 -14.1626,-5.6724 -24.3297,-10.0773 -14.9672,-6.4846 -39.8767,-17.7742 -66.9732,-33.0408 -17.0454,-9.6036 -36.6774,-21.7364 -56.2243,-36.3674 -5.7922,-4.3356 -11.7952,-9.0556 -17.8589,-14.1575 -20.5009,-17.2495 -43.1049,-40.0371 -60.2448,-68.4766 -12.297,-22.5903 -31.3065,-56.7969 -54.9834,-104.4615 -22.0348,-43.9675 -40.6457,-96.6373 -54.8306,-158.559 -13.6088,-59.4065 -23.0807,-127.0648 -27.6038,-203.0923 -8.6441,-145.2939 0.8636,-320.2717 33.4414,-522.8197 18.6792,-116.4926 35.6327,-220.0579 53.285,-306.92462 17.3767,-85.51088 35.4556,-155.05893 57.0861,-208.99589 27.3634,-67.76234 56.0318,-115.70058 83.4328,-149.62128 27.3624,-33.87282 53.4724,-53.78789 75.9028,-65.62625 22.5022,-11.87628 41.9654,-15.97257 56.3327,-17.41073 7.2751,-0.72824 13.4045,-0.79074 18.3122,-0.77144 2.2921,0.009 4.9087,0.0434 6.9229,0.0101 1.0625,-0.0176 2.3264,-0.0572 3.6096,-0.16622 1.1357,-0.0965 3.1462,-0.31099 5.3631,-0.95627 -0.9327,0.26062 -1.461,0.31127 -1.4856,0.31331 -0.2962,0.0246 0.2233,-0.0361 0.3134,-0.0445 0.6017,-0.0562 1.6535,-0.10598 3.1064,-0.10212 2.9114,0.008 6.9898,0.22735 11.8588,0.83018 9.8576,1.22048 22.1975,3.91498 34.3743,9.04753 12.1914,5.13871 23.8136,12.57456 32.761,22.91528 4.4906,5.18999 8.3938,11.19267 11.4495,18.18061 3.0729,7.02709 5.3605,15.21453 6.4518,24.79856 2.2096,19.40481 -0.4709,44.75643 -11.8005,77.5847 -11.4748,33.24873 -31.5753,73.44696 -63.3168,121.76482 -65.1169,99.12305 -177.1943,229.35983 -356.3009,399.04273 -184.4334,174.7294 -356.9584,325.0374 -505.3833,451.399 -156.3795,133.1338 -289.7724,243.085 -395.90241,336.1566 -55.33308,48.5249 -103.13646,92.2926 -143.48447,132.5099 -41.57584,41.4411 -75.10288,78.9858 -100.33898,113.5964 -12.95976,17.7739 -23.79176,34.8548 -32.39792,51.3476 -8.77236,16.8114 -15.29419,33.1306 -19.36189,49.0364 -4.16057,16.269 -5.75569,32.1198 -4.54477,47.551 1.24106,15.8149 5.40335,30.8317 12.36,45.0405 0.71151,1.4591 1.45945,2.8929 2.24234,4.3015 4.3558,7.8366 9.78385,14.874 16.03293,21.1501 7.44463,7.4769 16.03695,13.8576 25.38711,19.2726 18.92076,10.9578 41.45833,18.2626 65.49429,22.7215 24.64113,4.5712 51.52288,6.2771 79.09944,5.5956 28.19871,-0.6969 57.41678,-3.8954 86.32294,-9.2461 59.51269,-11.0161 118.37939,-31.2502 167.07169,-58.8613 25.0869,-14.2255 47.8012,-30.5856 66.7823,-49.0104 19.3455,-18.7784 35.0032,-39.8661 45.2549,-63.3226 12.4666,-27.9537 22.2424,-60.4035 30.1097,-96.5224 8.067,-37.0359 14.2758,-78.6325 19.2089,-124.2319 10.0168,-92.5919 15.1081,-205.0088 19.0405,-335.1429 3.8898,-84.4418 7.0721,-164.3052 9.6306,-251.008 2.0949,-67.0386 4.5668,-133.3615 7.7096,-197.2686 4.8809,-99.2483 11.5859,-197.4144 21.7603,-285.489 7.6865,-66.53899 17.3744,-127.55838 29.8493,-179.81905 12.0554,-50.50364 26.4145,-91.54041 43.3363,-121.53319 8.7518,-16.0444 17.9368,-28.51206 27.4549,-37.67663 9.2271,-8.88441 18.8699,-14.77874 29.2057,-17.91891 10.3258,-3.13711 22.5079,-3.8785 37.2099,-0.81857 14.8593,3.09267 31.9664,10.0137 51.4315,21.77721 31.7505,20.27658 53.8329,40.57776 68.2854,60.22587 7.25,9.8563 12.5854,19.55345 16.2871,29.04293 3.7143,9.52157 5.8344,18.96234 6.5409,28.32569 0.7108,9.41972 0,18.91896 -2.0792,28.49695 -2.0968,9.64765 -5.5992,19.4203 -10.4767,29.25436 -9.8914,19.94279 -25.3024,39.87593 -45.4748,59.23896 -20.4637,19.64265 -45.49,38.37713 -73.8745,55.72389 -28.9177,17.67259 -61.1293,33.78999 -95.3417,47.97139 -71.1468,29.4911 -149.8917,50.2175 -226.6812,60.2449 -41.6058,5.4147 -89.2417,18.2753 -138.4184,35.9915 -51.2089,18.4484 -104.42747,42.2732 -155.78656,69.1921 -53.84277,28.2207 -105.51533,59.7617 -151.91216,92.6402 -49.10151,34.795 -91.91455,70.8023 -126.22054,106.4259 -17.999,18.6904 -33.59472,37.208 -46.5975,55.3944 -13.50827,18.8933 -24.17223,37.3642 -31.86545,55.281 -8.03406,18.7107 -12.79173,36.731 -14.23064,53.9519 -1.51251,18.1019 0.6543,35.1666 6.365,51.1278 6.0446,16.8942 16.00294,32.3995 29.52471,46.5601 14.46756,15.151 32.95872,28.706 54.96856,40.7842 23.90952,13.1208 51.86149,24.4388 83.08285,34.149 34.6599,10.7796 73.10686,19.5026 114.07074,26.5042 -40.91156,-7.3415 -79.24549,-16.4313 -113.72596,-27.5908 -31.0664,-10.0545 -58.74498,-21.7058 -82.28221,-35.1112 -21.67427,-12.3443 -39.63808,-26.064 -53.48424,-41.1943 -12.932,-14.1314 -22.15962,-29.3707 -27.53411,-45.6896 -5.07156,-15.3992 -6.70045,-31.7237 -4.8187,-48.9468 1.79186,-16.4004 6.76525,-33.5908 14.94212,-51.4996 7.83285,-17.1553 18.57259,-34.896 32.14509,-53.101 13.06417,-17.5232 28.69612,-35.3994 46.73208,-53.4712 34.38138,-34.4495 77.21174,-69.31 126.32095,-102.9675 46.39878,-31.7998 98.00504,-62.2383 151.68129,-89.3235 51.21395,-25.8427 104.13838,-48.5235 154.70858,-65.7657 48.7323,-16.6156 95.113,-28.121 134.8291,-32.3849 78.7808,-8.4937 159.9887,-27.9307 234.0373,-56.6147 35.6263,-13.8005 69.5405,-29.7303 100.3584,-47.4977 30.2036,-17.41331 57.6038,-36.69185 80.6424,-57.53602 22.6375,-20.48122 41.4086,-42.78763 54.3015,-66.63507 6.4016,-11.84083 11.387,-24.12135 14.6468,-36.79544 3.2446,-12.61536 4.765,-25.5727 4.2749,-38.76495 -0.4878,-13.13168 -2.9625,-26.33848 -7.569,-39.50149 -4.5818,-13.09256 -11.2285,-26.01696 -19.9815,-38.70248 -17.3791,-25.18707 -43.0431,-49.41567 -77.5073,-72.43145 -21.2405,-14.84245 -42.0554,-25.63893 -62.5336,-31.788 -20.5878,-6.18196 -40.8811,-7.66915 -60.5946,-3.79909 -19.8783,3.90242 -37.8215,12.99188 -53.7619,25.99579 -16.0709,13.11032 -29.9425,30.05073 -41.9997,49.44369 -22.0366,36.35817 -39.1524,83.28465 -52.8429,136.34299 -14.2951,55.40148 -25.2422,119.05266 -33.844,187.01602 -11.4034,90.1 -18.927,189.8399 -24.2657,289.8433 -3.4423,64.4807 -6.0933,131.2173 -8.2655,198.5542 -2.8991,85.2924 -3.5135,168.9669 -3.438,251.7664 -1.9342,130.0601 -4.6542,240.8145 -12.0731,331.3681 -3.6474,44.5195 -8.4465,84.3733 -14.8898,119.3511 -6.297,34.1834 -14.1362,63.5545 -23.9276,88.046 -6.8973,16.9445 -18.2454,33.4904 -33.8465,49.2989 -15.3358,15.5397 -34.4984,30.0732 -56.7456,43.2197 -43.3183,25.598 -97.1954,45.2282 -152.76013,56.3168 -26.85593,5.3594 -53.86443,8.6665 -79.72953,9.6476 -25.3482,0.9614 -49.41019,-0.3202 -70.87599,-4.0106 -21.07625,-3.6235 -39.14679,-9.4849 -53.27843,-17.4117 -6.91229,-3.8773 -12.77197,-8.187 -17.57138,-12.8751 -4.01165,-3.9185 -7.30318,-8.1205 -9.87926,-12.6142 -0.46543,-0.8119 -0.90925,-1.6363 -1.33106,-2.4736 -4.96367,-9.9467 -7.90635,-20.3035 -8.84349,-31.2849 -0.91972,-10.7777 0.0668,-22.4713 3.2758,-35.2986 3.15109,-12.5956 8.43368,-26.2345 16.09973,-41.0618 7.51878,-14.5424 17.24991,-30.0738 29.3217,-46.7242 23.57385,-32.5149 55.56009,-68.603 96.34178,-109.3672 39.51073,-39.4937 86.62394,-82.7363 141.63166,-131.0461 105.3969,-92.5631 238.745,-202.5594 395.3785,-335.9264 148.6558,-126.5742 321.7455,-277.3345 506.8656,-452.6349 180.087,-170.5344 294.4871,-302.92375 361.9069,-405.34454 32.9115,-49.99739 54.689,-92.94006 67.5088,-129.87077 12.655,-36.4562 16.7209,-67.46383 13.8136,-93.78757 -1.4434,-13.06871 -4.5973,-24.88337 -9.1859,-35.50175 -4.5649,-10.56367 -10.4701,-19.75877 -17.2797,-27.70978 -13.5033,-15.76678 -30.2176,-26.25712 -46.3562,-33.17479 -15.979,-6.84929 -31.7793,-10.36623 -44.2631,-12.02364 -6.2187,-0.82562 -11.7696,-1.21027 -16.2703,-1.2862 -2.2341,-0.0377 -4.3463,-0.002 -6.2341,0.1197 -0.9434,0.0607 -1.9396,0.1495 -2.935,0.28327 -0.9092,0.1222 -2.2345,0.33538 -3.6943,0.74647 1.6837,-0.49434 2.1747,-0.46349 2.2535,-0.4824 0.079,-0.0189 -0.3005,-0.01 -0.9193,-0.0197 -1.235,-0.02 -3.4292,-0.0978 -6.1701,-0.16457 -5.4606,-0.133 -13.1776,-0.19511 -22.4544,0.60794 -18.5345,1.60444 -43.1554,6.62914 -71.0426,21.05887 -27.754,14.36077 -58.1572,37.73295 -88.8242,75.3085 -30.6017,37.49552 -61.3586,88.99585 -90.1186,159.59798 -23.4784,57.27794 -42.5857,129.64407 -60.5161,215.87126 -18.2642,87.83239 -35.7042,192.16919 -54.6493,308.52279 -33.2402,204.7801 -43.303,383.1674 -34.5302,532.3072 4.5928,78.0788 14.3344,148.1918 28.5834,210.3137 14.8479,64.7329 34.591,120.8044 58.556,168.3821 24.9759,49.154 45.5141,82.8061 61.4178,105.2392 21.1321,32.7648 48.0615,57.5485 71.3805,75.1271 6.9578,5.2451 13.804,10.0066 20.381,14.3011 22.2254,14.5126 44.1792,25.506 63.2361,33.5904 30.9745,13.1402 57.1521,19.8734 74.618,23.0288 11.6769,2.1096 20.6815,2.8685 27.2424,2.9652 4.0694,0.06 7.3079,-0.1312 9.8506,-0.4365 1.4784,-0.1775 2.7315,-0.3947 3.7897,-0.6273 1.2112,-0.2663 2.171,-0.5536 2.9288,-0.828 z"
       id="path1"
       sodipodi:nodetypes="csssssssssssssc"
       inkscape:original-d="m 2206.669,2429.2656 c -26.7267,1.4952 -187.4231,-45.8971 -257.1074,-157.3266 -17.8133,-28.4845 -37.1868,-63.0304 -58.2006,-104.8503 -94.1715,-187.4123 -114.9933,-500.4721 -50.8011,-897.737 38.3915,-237.5924 67.9315,-409.61856 112.7682,-520.15717 112.3035,-276.86829 250.8756,-241.59587 263.5759,-245.22455 17.7709,-5.07741 413.8932,15.74466 -314.7992,705.93992 -728.8195,690.3157 -1281.03365,1009.5109 -1184.56292,1204.9911 58.9838,119.5199 445.72472,54.6068 514.85292,-108.2484 43.9339,-103.5017 53.7058,-284.9231 59.6248,-547.3312 1.9336,-85.7219 3.949,-169.9712 6.5343,-251.3872 11.4823,-361.5939 34.2069,-667.30176 110.9368,-797.93316 42.0928,-71.66222 100.4381,-90.63627 182.0959,-37.24466 264.0252,172.63186 -53.1324,388.42162 -373.009,426.50212 -319.87662,38.0806 -1073.87151,535.6665 -378.26679,657.5242"
       inkscape:path-effect="#path-effect1" />
  </g>
</svg>
